<svg version="1.1"
  xmlns="http://www.w3.org/2000/svg"
  xmlns:xlink="http://www.w3.org/1999/xlink" viewBox="0 0 421 75">
  <g transform="matrix(1.25 0 0 1.43 25.31 38.06)">
    <path transform=" translate(-169.85, -235)" d="M 163.75998 208.60528 h -13.84368 l 13.67689 39.27935 c 2.50187 7.25542 10.00748 13.51009 17.84667 13.51009 h 8.33956 v -13.09312 h -8.33956 c -3.25243 0 -4.50336 -1.9181 -5.58751 -4.83695 z" stroke-linecap="round" />
  </g>
  <g transform="matrix(1.25 0 0 1.43 89.31 38.06)">
    <path transform=" translate(-221.05, -235)" d="M 208.62684 241.62995 h 19.76477 l 6.92184 19.76477 h 14.01047 l -13.67689 -39.02916 c -2.58526 -7.33882 -10.09087 -13.76028 -18.09685 -13.76028 h -20.26514 v 13.25991 h 20.26514 c 4.00299 0 5.17053 3.16903 6.25467 6.50486 h -15.17801 c -8.67315 0 -15.84517 7.17203 -15.84517 15.92857 v 1.25093 c 0 8.67315 7.17203 15.84517 15.84517 15.84517 h 18.51383 v -13.25991 h -18.51383 c -2.41847 0 -2.58526 -2.08489 -2.58526 -3.8362 c 0 -1.41773 1.16754 -2.66866 2.58526 -2.66866 z" stroke-linecap="round" />
  </g>
  <g transform="matrix(1.25 0 0 1.43 161.24 38.06)">
    <path transform=" translate(-278.6, -235)" d="M 287.8527 208.60528 h -34.359 v 52.78944 h 34.359 c 8.75654 0 15.84517 -7.17203 15.84517 -15.84517 v -1.25093 c 0 -3.33583 -1.08414 -6.58826 -3.00224 -9.25692 c 2.41847 -3.33583 3.00224 -6.50486 3.00224 -10.50785 c 0 -8.75654 -7.08863 -15.92857 -15.84517 -15.92857 z M 290.52136 245.54955 c 0 1.41773 -1.25093 2.58526 -2.66866 2.58526 h -21.0991 v -26.26963 h 21.0991 c 2.41847 0 2.66866 2.08489 2.66866 3.9196 c 0 1.41773 -1.25093 2.58526 -2.66866 2.58526 h -13.17651 v 13.25991 h 13.17651 c 2.41847 0 2.66866 2.08489 2.66866 3.9196 z" stroke-linecap="round" />
  </g>
  <g transform="matrix(1.25 0 0 1.43 262.36 38.34)">
    <path transform=" translate(-359.49, -235.21)" d="M 364.24311 209.02226 h -29.27187 v 52.37246 h 13.09312 v -11.09162 h 16.17875 c 11.34181 0 19.76477 -9.5905 19.76477 -20.59872 c 0 -11.00822 -8.42296 -20.68212 -19.76477 -20.68212 z M 364.24311 237.20998 h -16.17875 v -15.09461 h 16.17875 c 4.00299 0 6.67165 3.9196 6.67165 7.589 c 0 3.66941 -2.66866 7.50561 -6.67165 7.50561 z" stroke-linecap="round" />
  </g>
  <g transform="matrix(1.25 0 0 1.43 324.54 38.06)">
    <path transform=" translate(-409.24, -235)" d="M 387.4271 235.0417 c 0 14.51084 11.25841 26.35302 25.10209 26.35302 h 18.51383 v -13.25991 h -18.51383 c -6.50486 0 -11.84218 -5.8377 -11.84218 -13.09312 c 0 -7.25542 5.33732 -13.17651 11.84218 -13.17651 h 18.51383 v -13.25991 h -18.51383 c -13.84368 0 -25.10209 11.84218 -25.10209 26.43642 z" stroke-linecap="round" />
  </g>
  <g transform="matrix(1.25 0 0 1.43 388.59 38.34)">
    <path transform=" translate(-460.48, -235.21)" d="M 465.23523 209.02226 h -29.27187 v 52.37246 h 13.09312 v -11.09162 h 16.17875 c 11.34181 0 19.76477 -9.5905 19.76477 -20.59872 c 0 -11.00822 -8.42296 -20.68212 -19.76477 -20.68212 z M 465.23523 237.20998 h -16.17875 v -15.09461 h 16.17875 c 4.00299 0 6.67165 3.9196 6.67165 7.589 c 0 3.66941 -2.66866 7.50561 -6.67165 7.50561 z" stroke-linecap="round" />
  </g>
</svg>
